# xmcd
#
# Track frame offsets:
#	151
#	15539
#	28193
#	40372
#	57612
#	69993
#	83037
#	92721
#	101997
#	114391
#	126537
#	140056
#	152877
#
# Disc length: 2219 seconds
#
# Revision: 0
# Processed by: cddbd v1.4PL0 Copyright (c) Steve Scherf et al.
# Submitted via: dBpowerAMP V4.0
#
DISCID=bb08a90d
DTITLE=Ray Sanders - Love Position
DYEAR=2002
DGENRE=Country
TTITLE0=Love Position
TTITLE1=When You Feel In Love
TTITLE2=Love Is On The Move
TTITLE3=I Can't Unlove You
TTITLE4=Where Does Love Go
TTITLE5=She's Taking Her Time
TTITLE6=I Wonder
TTITLE7=Let's Do It
TTITLE8=Play Me A Good Country Song
TTITLE9=Mirrors
TTITLE10=If At First I Don't Succeed
TTITLE11=Out Of Love Experience
TTITLE12=Next To You
EXTD=
EXTT0=
EXTT1=
EXTT2=
EXTT3=
EXTT4=
EXTT5=
EXTT6=
EXTT7=
EXTT8=
EXTT9=
EXTT10=
EXTT11=
EXTT12=
PLAYORDER=
